<svg version="1.1" id="Layer_1" xmlns="http://www.w3.org/2000/svg" xmlns:xlink="http://www.w3.org/1999/xlink" x="0px" y="0px"
	 width="1024px" height="1024px" viewBox="0 0 1024 1024" enable-background="new 0 0 1024 1024" xml:space="preserve">
    
    <path fill="#0F2636" d="
    M656.000122,263.670349 
    C691.323181,263.659393 726.146301,263.660034 760.969360,263.620605 
    C764.462891,263.616638 767.955200,263.308411 771.449829,263.254913 
    C774.274170,263.211609 776.224182,264.136230 776.331421,267.507111 
    C777.206543,295.004517 773.358154,321.438385 757.588501,344.784424 
    C737.725891,374.189880 709.416443,390.639771 674.812500,396.269135 
    C653.854248,399.678619 632.590515,398.096832 611.460083,398.159027 
    C556.480774,398.320923 501.500427,398.274841 446.521362,398.069366 
    C441.198578,398.049500 440.179474,399.873871 440.214203,404.707458 
    C440.414215,432.531097 440.232513,460.357391 440.396423,488.181488 
    C440.423279,492.735077 439.207855,495.894165 435.488678,498.802765 
    C420.010345,510.907837 404.718903,523.255615 389.520233,535.711243 
    C386.610870,538.095520 384.726776,537.962402 381.804962,535.760071 
    C357.062744,517.110718 332.244598,498.560730 307.311157,480.168091 
    C303.738342,477.532501 301.938171,474.650604 301.937317,470.235535 
    C301.932587,445.582458 301.816559,420.929352 301.712280,396.276337 
    C301.696991,392.662201 303.212097,390.029053 306.023560,387.744293 
    C330.196442,368.099884 354.295135,348.364197 378.434998,328.679138 
    C379.790375,327.573883 380.912964,325.901184 383.332245,326.237793 
    C384.706665,328.741516 383.271240,331.365387 383.314758,333.900452 
    C383.492065,344.227325 383.287598,354.560364 383.422394,364.888519 
    C383.467896,368.373871 382.227722,370.807709 379.559784,373.025970 
    C366.882111,383.566742 354.365723,394.301422 341.698090,404.854462 
    C339.314667,406.840027 338.241241,409.003540 338.210571,412.120544 
    C338.074615,425.940552 338.526001,439.775421 337.369324,453.574982 
    C337.127686,456.457764 338.128601,458.834686 340.439758,460.567078 
    C361.483124,476.340607 382.539520,492.096771 403.797028,508.011383 
    C405.419739,506.026703 404.763733,503.980927 404.764313,502.140350 
    C404.782471,445.324066 404.703003,388.507690 404.770966,331.691498 
    C404.790985,314.935242 408.958771,299.317230 419.619324,286.049286 
    C431.098297,271.762787 446.135925,263.747192 464.560425,263.691925 
    C528.206421,263.500946 591.853455,263.650635 656.000122,263.670349 
    M664.881287,298.457397 
    C661.221985,298.610352 657.562378,298.904022 653.903503,298.895203 
    C592.776184,298.748169 531.649048,298.520874 470.521667,298.414490 
    C453.587952,298.385040 444.055206,306.491058 441.202148,323.003265 
    C439.315796,333.920746 440.665283,344.944489 440.366943,355.915710 
    C440.196686,362.178925 440.725555,362.619904 447.222656,362.636017 
    C465.216370,362.680664 483.210480,362.711182 501.204041,362.644226 
    C551.170166,362.458344 601.137573,362.946930 651.104126,362.202118 
    C660.284546,362.065247 669.360596,362.014740 678.262329,359.537384 
    C707.199829,351.484100 727.846313,334.437042 737.145386,305.147858 
    C739.245789,298.532013 739.075684,298.378296 732.286438,298.380280 
    C710.132507,298.386688 687.978577,298.416351 664.881287,298.457397 z"/>
    
    <path fill="#2A6FDB" d="
    M596.845703,543.862183 
    C613.002075,532.480042 623.898987,517.880859 628.165344,498.694916 
    C629.569763,492.379181 628.827026,491.298157 622.363586,491.296600 
    C586.867188,491.288025 551.370605,491.391357 515.874634,491.272400 
    C511.435059,491.257507 508.244507,493.214905 505.156860,495.808197 
    C467.904938,527.095703 429.754883,557.284058 392.180634,588.175049 
    C375.964203,601.507080 359.807739,614.903870 343.213928,627.763306 
    C339.836975,630.380249 338.186768,633.345276 338.206757,637.905823 
    C338.363129,673.568298 338.238037,709.232056 338.220306,744.895386 
    C338.219666,746.166504 338.432831,747.437683 338.584625,749.137878 
    C342.110657,747.989563 344.212708,745.529297 346.562286,743.587952 
    C360.177032,732.338440 373.783386,721.074890 387.207550,709.599670 
    C398.559662,699.895691 404.712067,687.484924 404.764740,672.440063 
    C404.856354,646.276611 404.818542,620.111694 404.602875,593.949341 
    C404.563812,589.214539 405.758514,585.742920 409.610046,582.775757 
    C417.657654,576.575928 425.384796,569.961853 433.338409,563.637207 
    C435.210419,562.148621 436.973022,560.177612 439.981598,560.220337 
    C441.453430,563.119568 440.277893,566.134949 440.281586,569.014832 
    C440.324371,602.344910 440.107117,635.675659 440.233154,669.005188 
    C440.339844,697.214722 430.361542,720.488098 408.229736,738.512085 
    C386.270203,756.395874 364.659760,774.708923 342.944366,792.891174 
    C340.741089,794.736084 338.381409,795.376526 335.595947,795.356079 
    C326.597290,795.290039 317.591766,795.151184 308.600983,795.429688 
    C304.034576,795.571228 302.464630,794.030334 302.568268,789.414795 
    C303.061737,767.436340 302.448669,745.449707 302.297791,723.473267 
    C302.121582,697.814758 302.194092,672.155090 302.040680,646.496765 
    C301.988983,637.850708 302.527649,629.201904 302.534149,620.554138 
    C302.536804,617.036987 303.846466,614.634583 306.532532,612.479370 
    C338.630432,586.724854 370.766235,561.016052 402.705750,535.065918 
    C433.089813,510.379608 463.265717,485.436920 493.495453,460.561188 
    C496.278259,458.271179 499.114014,456.747650 502.874634,456.522400 
    C521.688782,455.395233 540.515381,456.013000 559.333435,455.946442 
    C592.660889,455.828613 625.989441,455.988220 659.317505,456.030945 
    C662.302856,456.034760 665.196838,456.160583 665.229370,460.274597 
    C665.383118,479.739258 666.610596,499.414551 659.662231,518.074219 
    C645.067200,557.268555 616.588806,580.783813 576.137085,590.046143 
    C570.850769,591.256714 565.217896,591.270264 559.743591,591.290405 
    C530.246643,591.398987 500.749054,591.343872 471.251678,591.322815 
    C464.661407,591.318115 464.711273,591.275940 464.608856,584.600098 
    C464.498993,577.438965 464.436523,570.271301 464.059448,563.122009 
    C463.802216,558.244141 465.426331,556.454224 470.605774,556.504578 
    C497.593933,556.766785 524.585815,556.712524 551.576111,556.657715 
    C567.705750,556.624939 582.998230,553.407288 596.845703,543.862183 z"/>
</svg>